<?xml version="1.0" standalone="no"?>
<!DOCTYPE svg PUBLIC "-//W3C//DTD SVG 1.1//EN" "http://www.w3.org/Graphics/SVG/1.1/DTD/svg11.dtd" >
<svg xmlns="http://www.w3.org/2000/svg">
<metadata></metadata>
<defs>
<font id="yuanti_scregular" horiz-adv-x="1024" vert-adv-y="2048" >
<font-face units-per-em="2048" ascent="1761" descent="-287" />
<missing-glyph horiz-adv-x="512" />
<glyph horiz-adv-x="0" vert-adv-y="0" />
<glyph horiz-adv-x="682" />
<glyph unicode=" "  horiz-adv-x="512" />
<glyph unicode="&#x09;" horiz-adv-x="512" />
<glyph unicode="&#xa0;" horiz-adv-x="512" />
<glyph unicode="!" horiz-adv-x="663" d="M223 100q0 -43 32 -75.5t77 -32.5t77.5 32.5t32.5 75.5q0 47 -32.5 79t-77.5 32t-77 -32t-32 -79zM258 518v930q0 47 17.5 65.5t56.5 18.5t56.5 -17.5t17.5 -68.5v-926q0 -47 -17.5 -66.5t-56.5 -19.5t-56.5 18.5t-17.5 65.5z" />
<glyph unicode="&#x22;" horiz-adv-x="880" d="M188 985v490q0 78 74 77q76 0 76 -77v-490q0 -78 -76 -78q-41 0 -57.5 19.5t-16.5 58.5zM600 985v490q0 78 76 77q74 0 74 -77v-490q0 -78 -74 -78q-41 0 -58.5 19.5t-17.5 58.5z" />
<glyph unicode="#" horiz-adv-x="1312" d="M106 530q0 35 18.5 51.5t47.5 16.5h172l31 354h-123q-39 0 -76 10.5t-37 57.5q0 35 18.5 51t47.5 16h176l27 316q4 37 15 70.5t58 33.5q80 0 74 -69l-29 -351h240l25 316q4 37 16 70.5t59 33.5q78 0 74 -69l-31 -351h185q29 0 47 -16t18 -51q0 -47 -32.5 -57.5 t-71.5 -10.5h-152l-29 -354h187q29 0 47 -16.5t18 -51.5q0 -47 -32.5 -57t-71.5 -10h-156l-28 -346q-2 -18 -5.5 -38t-10.5 -35t-21.5 -25.5t-36.5 -10.5q-80 0 -74 70l31 385h-240l-26 -346q-4 -39 -16.5 -74t-59.5 -35q-78 0 -74 70l33 385h-121q-18 0 -38.5 2t-36 9 t-26 20.5t-10.5 35.5zM489 598h238l33 354h-240z" />
<glyph unicode="$" horiz-adv-x="1009" d="M71.5 97q-26.5 50 0.5 85q23 31 52.5 29t63.5 -25q61 -41 134 -71.5t159 -30.5q53 0 103.5 20.5t89.5 56.5t62.5 85t23.5 106q0 55 -22.5 101.5t-59.5 82t-83 62.5t-91 45q-84 33 -156 67.5t-124 80t-80.5 106.5t-28.5 152q0 82 32.5 148.5t87 112.5t125 69.5t148.5 23.5 t151.5 -20.5t126 -53.5t75 -72.5t-0.5 -78.5q-18 -29 -55 -29t-68 22q-41 29 -102.5 59t-126.5 30q-104 -2 -166.5 -60.5t-62.5 -150.5q0 -59 26.5 -100.5t69.5 -72t99 -56t116 -52.5q78 -35 139.5 -72t104.5 -84t65.5 -108.5t22.5 -143.5q0 -90 -33 -166.5t-92.5 -133 t-142.5 -88t-181 -33.5q-78 -2 -152.5 16t-134.5 47q-88 45 -114.5 95zM432 -244v1626q0 29 1 58.5t9.5 54.5t22.5 40t43 15q76 0 76 -75v-1629q0 -29 -1 -57.5t-8.5 -53t-22.5 -39.5t-44 -15q-41 0 -58.5 19t-17.5 56z" />
<glyph unicode="%" horiz-adv-x="2048" d="M203 1024q0 211 79.5 323.5t227.5 112.5q145 0 226 -114.5t81 -323.5q0 -207 -83 -322.5t-224 -115.5q-143 0 -225 114.5t-82 325.5zM227 -212q-4 28 25 58l1374 1641q31 41 57.5 39t55.5 -25q27 -20 30 -45.5t-28 -58.5l-1374 -1639q-33 -39 -60.5 -36.5t-52.5 22.5 q-23 16 -27 44zM336 1022q0 -154 46 -235.5t128 -81.5q84 0 129 81.5t45 235.5q0 317 -174 317q-86 0 -130 -81.5t-44 -235.5zM1214 260q0 215 83 330t231 115q147 0 230 -116t83 -329q0 -215 -85 -331.5t-230 -116.5q-143 0 -227.5 116.5t-84.5 331.5zM1350 258 q0 -160 47 -243t131 -83q86 0 132 83t46 243q0 328 -178 328q-90 0 -134 -84t-44 -244z" />
<glyph unicode="&#x26;" horiz-adv-x="1357" d="M86 420q2 156 116.5 275.5t305.5 209.5q158 80 213 154q37 49 43 98t-13.5 89t-59.5 65.5t-93 25.5q-70 0 -124 -41t-54 -108q0 -29 11 -59.5t44 -79t89.5 -119t148.5 -178t222 -258t308 -357.5q23 -27 17.5 -51.5t-23.5 -40.5q-18 -18 -48 -22.5t-52 22.5 q-182 215 -316.5 370.5t-229.5 268.5t-156.5 188.5t-95.5 131t-47 96.5t-13 84q0 68 25.5 120t69.5 87.5t102.5 55t121.5 19.5q61 0 117.5 -19.5t99.5 -55t68.5 -86t25.5 -109.5q0 -49 -19.5 -102.5t-58 -105.5t-98 -101t-139.5 -88q-166 -80 -263.5 -170t-97.5 -209 q0 -63 28 -115.5t72 -89.5t101.5 -56.5t118.5 -19.5q109 0 196 43t148 114t96 163t37 192q0 29 18.5 51.5t59.5 18.5q41 -2 54.5 -21.5t13.5 -46.5q0 -127 -47.5 -243.5t-131.5 -206.5t-199.5 -144.5t-254.5 -54.5q-92 0 -175 28.5t-145.5 82t-99.5 130.5t-37 175z" />
<glyph unicode="'" horiz-adv-x="905" d="M291 981q6 31 18 61l144 433q12 41 34.5 67.5t69.5 13.5q55 -20 47 -71q-4 -16 -8 -31.5t-8 -34.5q-41 -117 -79 -234.5t-79 -234.5q-10 -29 -27.5 -39t-40.5 -6q-35 2 -55 25.5t-16 50.5z" />
<glyph unicode="(" horiz-adv-x="688" d="M94 631q0 352 150 643q76 147 126 217t72 74q16 2 37 -4.5t38.5 -17.5t25.5 -25.5t0 -26.5q-80 -117 -136.5 -220.5t-93.5 -204.5t-54 -206.5t-17 -228.5q0 -133 16 -241.5t52 -212t93.5 -210t139.5 -233.5q12 -23 0.5 -41.5t-34 -28.5t-49 -9t-40.5 19 q-80 92 -140.5 204t-101.5 236t-62.5 255t-21.5 262z" />
<glyph unicode=")" horiz-adv-x="688" d="M145 -266q82 127 139.5 233.5t93.5 210t52 212t16 241.5q0 123 -17 228.5t-54 206.5t-93.5 204.5t-136.5 220.5q-8 12 1.5 25.5t25.5 24.5t36.5 18.5t35.5 7.5q49 0 200 -293q150 -291 150 -643q0 -123 -16.5 -240t-54.5 -232.5t-100.5 -235.5t-154.5 -249 q-12 -16 -36.5 -16t-48 10t-37 27.5t-1.5 38.5z" />
<glyph unicode="*" horiz-adv-x="856" d="M78 1166q2 20 12 36q12 18 28.5 18.5t28.5 -3.5l189 -62v193q0 51 72 51t71 -51q0 -51 1 -99.5t1 -99.5l160 59q8 4 14.5 5t14.5 6q14 4 32.5 1t34.5 -44q10 -20 11.5 -45t-17.5 -37q-18 -14 -39 -21l-164 -55q31 -47 65 -95.5t56 -91.5q6 -18 -3 -37.5t-25.5 -31.5 t-38 -14.5t-39.5 14.5q-10 8 -20.5 17t-18.5 22l-101 143l-94 -137q-16 -20 -39 -41q-18 -16 -39.5 -15t-39 13t-25.5 31.5t-2 40.5q4 12 9 24t15 25l101 139l-189 59q-10 2 -12 19.5t2 27.5q-14 16 -12 36z" />
<glyph unicode="+" horiz-adv-x="1210" d="M115 614q0 51 32.5 64.5t83.5 13.5h297v316q0 45 13.5 77.5t64.5 32.5q78 0 78 -71v-355h303q41 0 75 -13.5t34 -64.5q0 -76 -70 -75h-342v-320q0 -53 -13.5 -88t-64.5 -35q-78 0 -78 80v363h-297q-51 0 -83.5 13t-32.5 62z" />
<glyph unicode="," horiz-adv-x="385" d="M33 -215q4 14 7 27.5t7 29.5l105 301q14 41 33.5 64.5t66.5 11.5q49 -16 47 -59q-6 -51 -25 -103l-92 -272q-14 -39 -28.5 -61.5t-49.5 -16.5q-35 2 -55 25.5t-16 52.5z" />
<glyph unicode="-" horiz-adv-x="1107" d="M115 614q0 53 40 65.5t91 12.5h678q69 0 69 -78q0 -76 -69 -75h-680q-25 0 -48.5 2t-41 9t-28.5 22.5t-11 41.5z" />
<glyph unicode="." horiz-adv-x="518" d="M156 100q0 47 32.5 79t77.5 32t77 -32t32 -79q0 -43 -32 -75.5t-77 -32.5t-77.5 32.5t-32.5 75.5z" />
<glyph unicode="/" horiz-adv-x="995" d="M147 -197l543 1635q8 27 21.5 57.5t30 55t37.5 37.5t48 5q29 -10 44.5 -31.5t2.5 -58.5l-579 -1745q-12 -35 -42 -42t-58 3q-25 10 -41.5 32t-6.5 52z" />
<glyph unicode="0" horiz-adv-x="1159" d="M106 686q0 145 27 278.5t83 233.5t146.5 159.5t217.5 59.5q129 0 219 -58.5t146 -158.5t82 -231t26 -277q0 -145 -29 -276t-88 -229.5t-148.5 -157t-209.5 -58.5q-121 0 -209 57.5t-146.5 155t-87.5 227.5t-29 275zM264 686q0 -104 16.5 -203.5t53.5 -178.5t97.5 -127 t148.5 -48t147 50t96 130t53.5 180.5t16.5 200.5q0 102 -16.5 206.5t-54.5 188.5t-97 137.5t-145 53.5t-146.5 -52.5t-97.5 -137.5t-54.5 -190t-17.5 -210z" />
<glyph unicode="1" horiz-adv-x="606" d="M137 1309q0 47 16.5 64.5t51.5 17.5h141q104 0 105 -82v-1270q0 -68 -78 -68q-80 0 -80 68v1194h-92q-35 0 -49.5 14.5t-14.5 61.5z" />
<glyph unicode="2" horiz-adv-x="1099" d="M138 80.5q1 25.5 16 52.5q0 25 16 51q39 41 97.5 97.5t123 122t129 139t116.5 152.5t85 162t33 165q0 111 -59.5 178.5t-162.5 67.5q-117 0 -170 -79t-53 -202q0 -51 -17.5 -73.5t-62.5 -22.5q-51 0 -67.5 19.5t-16.5 76.5q0 199 98.5 314.5t301.5 115.5 q90 0 160.5 -27.5t118.5 -77.5t73 -121t25 -157q0 -78 -26 -156.5t-68 -155.5t-95 -150.5t-108 -137.5q-131 -152 -297 -293h565q70 1 70 -73q0 -76 -70 -76h-686q-20 0 -36.5 12t-25 31.5t-7.5 45z" />
<glyph unicode="3" horiz-adv-x="1120" d="M137 332q2 35 22.5 60.5t55.5 25.5q25 0 51.5 -18.5t30.5 -61.5q2 -41 19.5 -80t50 -71.5t83 -52t119.5 -19.5q61 0 111.5 19.5t86.5 54t55.5 82.5t19.5 104q0 70 -28 121t-74 83.5t-104 48t-122 15.5q-31 0 -55.5 14.5t-32.5 42.5q-10 23 0 56q12 45 80 45 q53 0 101 22.5t84 58.5t57.5 83t21.5 96q0 109 -65.5 166t-157.5 57q-96 0 -156.5 -60.5t-60.5 -162.5q0 -41 -19.5 -64.5t-60.5 -23.5q-31 0 -50.5 25.5t-19.5 68.5q0 84 29 149.5t80 109.5t117.5 67.5t144.5 23.5q74 0 141.5 -20.5t118.5 -61.5t82 -104.5t31 -151.5 q0 -72 -23.5 -127t-61.5 -98t-84 -74t-91 -51q57 -8 116.5 -32.5t108.5 -66.5t79.5 -103.5t30.5 -141.5q0 -96 -32.5 -172t-91 -130t-139.5 -83t-179 -29q-113 0 -192.5 36t-130 90.5t-74 118t-23.5 116.5z" />
<glyph unicode="4" horiz-adv-x="1173" d="M68 354q-4 18 0 45q6 37 20 63.5t33 55.5l444 688q43 68 72 102.5t72 57.5q27 29 49 41t51 10q14 -2 27.5 -6t24.5 -17.5t17.5 -39t6.5 -70.5v-842h94q57 0 57 -73q0 -74 -57 -74h-94v-254q0 -41 -16.5 -54.5t-63.5 -13.5q-45 0 -61.5 15.5t-16.5 52.5v254h-573 q-74 0 -86 59zM246 442h481v764z" />
<glyph unicode="5" horiz-adv-x="1107" d="M138 196.5q3 34.5 24 57.5q16 16 41.5 19t48.5 -21q57 -68 128 -99.5t132 -31.5q63 0 117.5 26.5t94.5 70.5t63.5 103.5t23.5 122.5q0 135 -71.5 215t-209.5 80q-55 0 -91 -8t-62.5 -17t-49 -16.5t-48.5 -7.5q-45 0 -65.5 27.5t-14.5 64.5l84 510q10 53 28.5 76t71.5 23 h483q63 0 64 -76q0 -74 -64 -74h-442l-66 -377q49 10 89 15.5t94 5.5q98 0 178 -32t135 -89t86 -139t31 -183q0 -94 -34 -180t-95.5 -150.5t-145.5 -102.5t-182 -38q-66 0 -118 12.5t-94 35t-77 52t-65 64.5q-25 27 -22 61.5z" />
<glyph unicode="6" horiz-adv-x="1089" d="M127 436q0 102 22.5 211t63.5 214.5t99.5 202.5t131.5 179q154 174 209 174q20 0 39 -13t27 -32.5t4 -42t-27 -43.5q-49 -43 -93 -89t-84 -100.5t-76.5 -120t-73.5 -147.5q25 18 46 31.5t42.5 21t46 11.5t57.5 4q94 0 169 -37t127 -99.5t80 -147.5t28 -181 q0 -86 -31 -169t-87 -147.5t-135 -104.5t-175 -40q-98 0 -175 38t-129.5 101.5t-79 148.5t-26.5 177zM283 432q0 -59 16 -115.5t49 -101.5t80.5 -71.5t108.5 -26.5q63 0 113 26.5t84 70.5t52.5 102.5t18.5 119.5q0 152 -69.5 235t-186.5 83q-61 0 -111.5 -24.5t-84.5 -68 t-52 -102.5t-18 -127z" />
<glyph unicode="7" horiz-adv-x="1044" d="M137 1311q0 45 16.5 62.5t57.5 17.5h678q86 0 86 -68q0 -14 -10 -45q-45 -102 -97.5 -220t-118 -265.5t-147.5 -331t-186 -416.5q-16 -35 -41 -52.5t-66 -17.5q-29 0 -41 11.5t-15 29t2 36t11 32.5l533 1157h-594q-68 0 -68 70z" />
<glyph unicode="8" horiz-adv-x="1128" d="M137 410q0 111 62.5 211t181.5 151q-86 45 -133 123t-47 170q0 80 27.5 144.5t76.5 110.5t116.5 71.5t147.5 25.5q166 0 261.5 -96t95.5 -264q0 -80 -46 -160t-126 -125q117 -53 177 -148.5t60 -213.5q0 -96 -29.5 -176t-85 -138.5t-134 -91.5t-179.5 -33q-98 0 -177 31 t-134 88t-85 138t-30 182zM281 408q0 -131 76.5 -214t205.5 -83t206 86t77 223q0 57 -23.5 108.5t-63.5 91t-92.5 63.5t-107.5 24q-59 0 -110.5 -24t-88 -63.5t-58 -95t-21.5 -116.5zM346 1061q0 -102 58.5 -161.5t160.5 -59.5q94 0 154.5 63.5t60.5 159.5q0 47 -16 88 t-45 71.5t-69 49t-87 18.5q-92 0 -154.5 -64.5t-62.5 -164.5z" />
<glyph unicode="9" horiz-adv-x="1079" d="M127 950q0 88 28.5 172t83 149.5t132.5 105.5t174 40q98 0 174 -39t128 -103.5t78.5 -148.5t26.5 -176q0 -100 -23.5 -208.5t-64.5 -215t-98 -205t-127 -178.5q-154 -172 -209 -172q-23 0 -41 13.5t-26.5 33t-4.5 42t29 42.5q51 43 95 89.5t84 100.5t76 119.5t71 147.5 q-31 -20 -53.5 -33.5t-43 -20.5t-44 -10t-58.5 -3q-92 0 -163.5 37.5t-122 101t-76 146.5t-25.5 173zM279 952q0 -147 68.5 -232t184.5 -85q121 0 194 85t73 232q0 68 -18.5 126.5t-51.5 102.5t-81 68.5t-105 24.5q-63 0 -112.5 -27.5t-83.5 -72t-51 -102.5t-17 -120z" />
<glyph unicode=":" horiz-adv-x="575" d="M203 133q0 47 31.5 79t76.5 32t78 -32t33 -79q0 -43 -33 -75.5t-78 -32.5t-76.5 32.5t-31.5 75.5zM203 852q0 45 31.5 77t76.5 32t78 -32t33 -77t-33 -78t-78 -33t-76.5 33t-31.5 78z" />
<glyph unicode=";" horiz-adv-x="622" d="M156 -215q4 23 11 43t15 43l92 272q14 41 34 64.5t67 11.5q49 -16 47 -59q-8 -41 -22.5 -91.5t-33 -103.5t-37 -107.5t-34.5 -103.5q-25 -66 -96 -41q-49 18 -43 72zM203 852q0 45 31.5 77t76.5 32t78 -32t33 -77t-33 -78t-78 -33t-76.5 33t-31.5 78z" />
<glyph unicode="&#x3c;" horiz-adv-x="1105" d="M115 612q0 29 18.5 56.5t59.5 44.5l690 293q53 23 79.5 0t26.5 -72q0 -27 -17.5 -45.5t-45.5 -28.5l-484 -201q-59 -25 -80.5 -37t27.5 -32l477 -197q43 -18 83 -40.5t40 -57.5q4 -53 -26.5 -73.5t-79.5 -0.5l-688 291q-45 20 -62.5 46t-17.5 54z" />
<glyph unicode="=" horiz-adv-x="1107" d="M115 383q0 76 78 76h731q70 0 69 -76q0 -74 -69 -74h-680q-49 0 -89 11.5t-40 62.5zM115 842q0 76 78 76h733q68 0 67 -76q0 -74 -65 -74h-682q-53 0 -92 12.5t-39 61.5z" />
<glyph unicode="&#x3e;" horiz-adv-x="1105" d="M123 262q-6 25 2 53q10 33 63 56l447 184q23 10 49.5 20.5t42.5 20.5t17 20.5t-25 22.5l-496 205q-25 10 -46 24.5t-32 34.5q-27 35 -20 64q6 33 29.5 47t70.5 -6l645 -275q123 -51 123 -119q0 -35 -27.5 -62.5t-97.5 -55.5l-645 -273q-41 -18 -67.5 -7t-32.5 46z" />
<glyph unicode="?" horiz-adv-x="1052" d="M135 1188q0 76 33 139.5t88 109.5t129 71.5t158 25.5q174 2 277.5 -94.5t103.5 -274.5q-2 -82 -38 -153.5t-124 -157.5q-59 -57 -97 -99t-58.5 -79t-28 -74t-7.5 -86q1 -82 -75 -82q-31 0 -53.5 18.5t-22.5 63.5q0 80 47 182.5t145 194.5q45 43 76 74.5t49.5 62.5 t26.5 65.5t8 82.5q0 109 -64.5 163t-170.5 54q-51 0 -95.5 -14.5t-77 -40t-52 -63.5t-21.5 -83q-2 -37 -26.5 -55.5t-57.5 -18.5q-72 2 -72 68zM389 100q0 -43 32 -75.5t77 -32.5q47 0 78.5 32.5t31.5 75.5q0 47 -31.5 79t-78.5 32q-45 0 -77 -32t-32 -79z" />
<glyph unicode="@" horiz-adv-x="1769" d="M145 733q0 174 67 320.5t177.5 254t253.5 169t295 61.5q147 0 278.5 -49t229.5 -137t156.5 -208t58.5 -261q0 -115 -44 -224.5t-114.5 -194.5t-159 -136.5t-176.5 -51.5q-59 0 -93 33t-54 101q-59 -59 -124 -90t-140 -31q-76 0 -128.5 30.5t-85 78.5t-48 106.5 t-15.5 113.5q0 94 37 199t104.5 194t159.5 147.5t203 58.5q94 0 152.5 -48.5t81.5 -124.5l28 89q23 78 82 41q23 -10 32 -34t-5 -65l-176 -526q-29 -86 -15.5 -114.5t54.5 -28.5t95 39.5t103 107.5t83 155t34 181q0 113 -50 208t-131 165.5t-187.5 111.5t-221.5 41 q-129 0 -250 -54t-213 -147.5t-147.5 -220.5t-55.5 -272q0 -143 51.5 -259t141.5 -197t213 -125t264 -44q92 0 170 15.5t147.5 48.5t135 87t133.5 134q14 20 29.5 23.5t30 -3t23.5 -19.5t11 -26q2 -25 -18.5 -58.5t-73.5 -86.5q-104 -109 -248.5 -174.5t-339.5 -67.5 q-166 0 -312.5 52.5t-254 150.5t-171 240.5t-63.5 320.5zM631 621q-2 -102 46 -153.5t128 -51.5q90 0 168 73.5t127 227.5q29 82 42 133t13 86q0 63 -44 100t-116 37q-78 0 -144.5 -44t-115.5 -110.5t-76.5 -146.5t-27.5 -151z" />
<glyph unicode="A" horiz-adv-x="1290" d="M110 -3q-11 13 -11 36q0 24 12 59l430 1251q10 33 35.5 52.5t66.5 19.5q43 0 69.5 -19.5t37.5 -52.5l432 -1255q8 -26 8 -47q0 -20 -6 -36q-14 -34 -68 -34h-6q-30 -1 -50 19q-22 22 -32 57l-113 313h-542l-84 -235q-10 -29 -20.5 -55.5t-24 -49t-30.5 -36t-40 -13.5 q-42 0 -64 26zM412 504h467l-234 702z" />
<glyph unicode="B" horiz-adv-x="1112" d="M137 72v1241q0 35 22.5 57.5t63.5 22.5h326q111 0 190.5 -26t131 -73t76 -111.5t24.5 -144.5q0 -117 -67 -192.5t-171 -102.5q143 -23 234.5 -109.5t91.5 -244.5q0 -186 -109.5 -291.5t-308.5 -105.5h-418q-43 0 -64.5 22.5t-21.5 57.5zM299 133h276q164 0 244 62.5 t80 197.5q0 145 -94 208t-275 63h-231v-531zM299 809h248q129 0 196.5 58.5t67.5 160.5q0 98 -64.5 160.5t-199.5 62.5h-248v-442z" />
<glyph unicode="C" horiz-adv-x="1300" d="M96 696q0 152 48.5 287t132 235.5t201.5 159t259 58.5q74 0 141.5 -16.5t123 -43t98.5 -60.5t69 -69q17 -34 17 -60v-7q-4 -16 -17.5 -27.5t-35.5 -15.5q-5 -1 -11 -1q-22 0 -50 18q-36 24 -85 54.5t-112.5 57t-143.5 26.5q-111 0 -199 -53t-149 -137t-94 -191.5 t-33 -214.5q0 -131 36 -241.5t103.5 -191.5t165.5 -125t221 -44q98 2 167 35t128 86q38 30 68 30q5 0 10 -1q31 -8 45 -30q12 -19 12 -38v-6q-2 -23 -35.5 -59.5t-92 -72.5t-136.5 -61.5t-166 -25.5q-154 0 -280.5 51t-216.5 147.5t-139.5 234.5t-49.5 312z" />
<glyph unicode="D" horiz-adv-x="1277" d="M139 72v1241q0 45 12.5 62.5t73.5 17.5h375q152 0 261.5 -54.5t181 -148.5t106.5 -222t35 -274q0 -147 -35 -275t-105.5 -223.5t-178 -149.5t-255.5 -54h-385q-61 0 -73.5 17.5t-12.5 62.5zM299 129h311q195 0 303.5 147.5t108.5 423.5q0 268 -111.5 411.5t-351.5 143.5 h-260v-1126z" />
<glyph unicode="E" horiz-adv-x="1093" d="M137 80v1225q0 49 20.5 68.5t73.5 19.5h650q43 0 64.5 -15.5t23.5 -56.5q0 -39 -22.5 -54.5t-65.5 -15.5h-582v-465h561q47 0 67.5 -16t20.5 -57q0 -39 -20.5 -53.5t-67.5 -14.5h-561v-512h526q33 0 63 -1t52.5 -7t35.5 -20.5t13 -41.5q0 -43 -22.5 -57t-73.5 -14h-662 q-47 0 -70.5 17.5t-23.5 70.5z" />
<glyph unicode="F" horiz-adv-x="1015" d="M137 45v1260q0 51 20.5 69.5t73.5 18.5h641q86 0 86 -74q0 -41 -21.5 -56.5t-66.5 -15.5h-571v-461h516q66 0 78 -41q10 -23 -2 -51q-12 -51 -76 -51h-516v-598q0 -35 -18.5 -54.5t-65.5 -19.5q-45 0 -61.5 19.5t-16.5 54.5z" />
<glyph unicode="G" horiz-adv-x="1433" d="M94 684q0 147 46 283.5t132 240t208 166t274 62.5q88 0 170 -17.5t163 -64.5q45 -27 81 -55.5t58.5 -55t29 -51.5t-6.5 -43q-8 -14 -22.5 -27.5t-33.5 -17.5t-42 1t-45 28q-49 47 -93 77.5t-87 49t-87 25.5t-94 7q-102 0 -191 -50t-154.5 -133t-103.5 -190.5t-38 -224.5 q0 -121 38 -229.5t105.5 -189t160.5 -129t204 -48.5q113 0 190.5 40t127 107.5t72 155t22.5 181.5h-326q-96 0 -96 71q0 78 96 78h371q66 0 91 -30.5t25 -116.5q0 -121 -30.5 -234.5t-99 -202t-178 -142.5t-267.5 -54q-154 0 -276.5 58.5t-211 157.5t-135.5 232t-47 285z " />
<glyph unicode="H" horiz-adv-x="1347" d="M137 53v1282q0 35 20.5 57.5t61.5 22.5t60.5 -22.5t19.5 -57.5v-553h750v553q0 37 17 58.5t62 21.5q41 0 61.5 -22.5t20.5 -57.5v-1282q0 -35 -19.5 -57.5t-60.5 -24.5q-41 0 -61 23.5t-20 58.5v590h-750v-590q0 -35 -19.5 -57.5t-60.5 -24.5q-41 0 -61.5 23.5 t-20.5 58.5z" />
<glyph unicode="I" horiz-adv-x="436" d="M139 47v1292q0 76 78 76q41 0 61.5 -17.5t20.5 -58.5v-1290q0 -78 -82 -78q-78 0 -78 76z" />
<glyph unicode="J" horiz-adv-x="755" d="M24 110q-4 11 -4 22q0 10 5 20q4 20 29.5 38.5t58.5 4.5q18 -4 34.5 -20.5t38 -33t53 -30t83.5 -13.5q55 0 82.5 21.5t39 58.5t11.5 86v105v966q0 35 20.5 57.5t61.5 22.5q39 0 59 -22.5t20 -57.5v-1073q0 -164 -76 -237.5t-221 -73.5q-49 0 -90 10t-77 29 q-31 14 -56.5 34.5t-44 42t-27.5 43.5z" />
<glyph unicode="K" horiz-adv-x="1144" d="M137 45v1290q0 37 18.5 58.5t63.5 21.5q43 0 61.5 -20.5t18.5 -59.5v-504l547 496q25 20 48.5 41t47 33t46 11t42.5 -21q20 -21 20 -44q0 -34 -42 -73l-609 -533l637 -610q38 -39 48 -69q2 -7 3 -14q0 -23 -22 -50q-18 -23 -44 -26t-48 16q-18 4 -31 18l-643 639v-600 q0 -35 -16.5 -54.5t-63.5 -19.5q-45 0 -63.5 20.5t-18.5 53.5z" />
<glyph unicode="L" horiz-adv-x="901" d="M137 90v1249q0 37 22.5 56.5t57.5 19.5q82 0 82 -76v-1202h457q35 0 56.5 -17.5t21.5 -56.5q0 -37 -23 -54t-55 -17h-512q-51 0 -79 26.5t-28 71.5z" />
<glyph unicode="M" horiz-adv-x="1720" d="M125 74l186 1218q8 61 40 92t83 31t85 -26.5t54 -94.5l291 -1026l285 1028q18 66 52 92.5t83 26.5t83 -30.5t44 -94.5l184 -1202q2 -17 2 -33q0 -24 -5 -46q-9 -36 -66 -38q-37 0 -53.5 21.5t-24.5 73.5l-119 817q-6 39 -15 96t-20.5 99t-25 54.5t-27.5 -36.5l-305 -1051 q-10 -39 -25.5 -56.5t-48.5 -17.5q-35 0 -49 15.5t-27 58.5q-78 264 -156.5 524t-152.5 525q-14 49 -29.5 49t-23.5 -49l-152 -1024q-6 -47 -23.5 -73t-64.5 -26q-63 0 -63 67q0 16 4 36z" />
<glyph unicode="N" horiz-adv-x="1331" d="M137 53v1282q0 35 15.5 57.5t56.5 22.5q33 0 51.5 -18.5t36.5 -40.5l735 -1075v1054q0 35 17.5 57.5t62.5 22.5t63.5 -20.5t18.5 -59.5v-1284q0 -35 -15.5 -57.5t-56.5 -22.5q-29 0 -50 17.5t-40 44.5l-733 1057v-1037q0 -35 -20.5 -58.5t-61.5 -23.5t-60.5 23.5 t-19.5 58.5z" />
<glyph unicode="O" horiz-adv-x="1425" d="M94 694q0 150 37 285t114 236.5t193.5 161t274.5 59.5q156 0 271.5 -59.5t192 -161t115.5 -236.5t39 -285q0 -152 -38 -286t-114.5 -236t-192.5 -161.5t-273 -59.5q-154 0 -270.5 59.5t-193.5 160.5t-116 236.5t-39 286.5zM254 694q0 -115 26.5 -221t82 -190 t142.5 -134.5t208 -50.5q115 0 200.5 43t143 121t86 186.5t28.5 239.5q0 119 -26.5 227.5t-82.5 192.5t-143.5 134t-205.5 50q-119 0 -206 -50t-143.5 -133t-83 -190.5t-26.5 -224.5z" />
<glyph unicode="P" horiz-adv-x="1097" d="M137 53v1241q0 59 21.5 79t95.5 20h324q231 0 341.5 -103.5t110.5 -326.5q0 -438 -452 -439h-279v-471q0 -39 -18.5 -60.5t-61.5 -21.5q-45 0 -63.5 23.5t-18.5 58.5zM299 664h279q158 0 225 71.5t67 225.5t-75.5 221t-216.5 67h-279v-585z" />
<glyph unicode="Q" horiz-adv-x="1474" d="M94 694q0 150 37 285t114 236.5t193.5 161t274.5 59.5q156 0 271.5 -59.5t192 -161t115.5 -236.5t39 -285q0 -152 -38 -286t-114.5 -236t-192.5 -161.5t-273 -59.5q-154 0 -270.5 59.5t-193.5 160.5t-116 236.5t-39 286.5zM254 694q0 -115 26.5 -221t82 -190 t142.5 -134.5t208 -50.5q115 0 200.5 43t143 121t86 186.5t28.5 239.5q0 119 -26.5 227.5t-82.5 192.5t-143.5 134t-205.5 50q-119 0 -206 -50t-143.5 -133t-83 -190.5t-26.5 -224.5zM870 360q-24 22 -24 48q0 29 31 63q16 14 26 18q18 15 36 15q25 0 48 -27l338 -340 q18 -18 35 -45q14 -22 14 -46v-6q-2 -26 -20 -46q-14 -16 -34 -20h-8q-16 0 -34 12q-39 4 -66 32z" />
<glyph unicode="R" horiz-adv-x="1153" d="M137 53v1241q0 63 22.5 81t94.5 18h332q217 0 331.5 -92.5t114.5 -296.5q0 -203 -118.5 -300.5t-327.5 -97.5h-287v-553q0 -35 -19.5 -58.5t-60.5 -23.5q-45 0 -63.5 23.5t-18.5 58.5zM287 641q12 2 35.5 7t48 11.5t48 11.5t36.5 9l526 -510q20 -23 38.5 -45.5 t28.5 -44.5q10 -21 10 -40q0 -23 -18 -40q-28 -27 -62 -28h-2q-33 0 -58 28zM299 748h287q141 0 212.5 59t71.5 192t-74.5 190.5t-209.5 57.5h-287v-499z" />
<glyph unicode="S" horiz-adv-x="991" d="M72 121q-13 24 -14 46q0 22 14 40q23 29 52.5 26.5t63.5 -24.5q61 -41 134 -70.5t159 -29.5q53 0 103.5 20.5t89.5 55t62.5 83.5t23.5 107q0 57 -22.5 103t-59.5 82t-83 61.5t-91 44.5q-84 33 -156 67.5t-124 79.5t-80.5 107.5t-28.5 152.5q0 82 32.5 148.5t87 112.5 t125 69.5t148.5 23.5t151.5 -21.5t126 -53t74.5 -71.5q11 -20 12 -39q0 -20 -12 -40q-17 -30 -52 -30h-3q-37 2 -68 24q-41 28 -103 58q-58 28 -118 28h-8q-104 0 -166.5 -59.5t-62.5 -151.5q0 -57 26.5 -98t69.5 -72t99 -57.5t116 -52.5q78 -35 139.5 -72t104.5 -84 t65.5 -108.5t22.5 -143.5q0 -90 -33 -167t-92.5 -133t-142.5 -88t-181 -34h-14q-71 -1 -139 17q-74 20 -134 49q-88 45 -114 94z" />
<glyph unicode="T" horiz-adv-x="1146" d="M84 1319q0 39 22.5 56.5t57.5 17.5h819q35 0 57.5 -19.5t22.5 -56.5q0 -41 -25.5 -56.5t-54.5 -15.5h-330v-1192q0 -41 -16 -61.5t-64 -20.5q-47 0 -63 21.5t-16 60.5v1192h-330q-37 0 -58.5 16.5t-21.5 57.5z" />
<glyph unicode="U" horiz-adv-x="1347" d="M137 436v899q0 35 19.5 57.5t60.5 22.5t61.5 -22.5t20.5 -57.5v-755q0 -104 14.5 -191.5t56.5 -149t115.5 -95t192.5 -33.5q193 0 283 98t90 278v848q0 35 18 57.5t61 22.5q41 0 60.5 -22.5t19.5 -57.5v-899q0 -111 -41 -198.5t-112.5 -149t-170 -94.5t-210.5 -33 q-113 0 -211 33t-171 94.5t-115 149.5t-42 198z" />
<glyph unicode="V" horiz-adv-x="1273" d="M109 1318v13q-3 12 -3 23q0 12 3 22q6 22 38 31q19 7 41 7q9 0 18 -1q32 -4 52 -61l381 -1108l377 1112q14 41 40 51q19 7 40 7q8 0 16 -1q38 -5 54 -29q7 -11 7 -27q0 -21 -12 -50l-436 -1252q-35 -84 -88 -84q-29 0 -48.5 16.5t-41.5 69.5l-434 1246q-4 8 -4 15z" />
<glyph unicode="W" horiz-adv-x="1712" d="M111 1313q-2 13 -2 25q0 24 8 46q12 32 65 31q29 0 49.5 -14.5t28.5 -69.5l146 -960q4 -33 11 -69t15 -57.5t18.5 -21.5t22.5 41l293 1067q25 84 86 84q33 0 51.5 -17.5t34.5 -68.5q76 -268 152.5 -532.5t156.5 -532.5q16 -50 28 -50t19 50l158 1063q8 47 25.5 67.5 t54.5 20.5q50 -1 64 -29q8 -18 9 -40q0 -14 -3 -29l-191 -1215q-10 -66 -46 -98.5t-85 -32.5q-45 0 -79 27t-50 86l-297 1040l-295 -1048q-29 -104 -127 -105q-53 2 -88 31t-49 115z" />
<glyph unicode="X" horiz-adv-x="1267" d="M76 26q-2 7 -2 14q0 16 10 34q0 14 12 30l881 1256q29 47 59 53q7 1 15 1q24 0 47 -15q32 -22 32 -53q0 -25 -20 -56l-895 -1278q-25 -35 -55 -40q-5 -1 -10 -1q-24 0 -48 19q-20 14 -26 36zM142 1362q8 22 28 37q30 19 53 19h3q24 -1 53 -40l901 -1284q4 -10 8 -17 t4 -14q5 -9 5 -20q0 -9 -3 -17q-6 -20 -29 -36q-28 -19 -51 -19q-35 0 -63 41l-895 1278q-12 14 -13 29q-4 10 -4 21q-1 11 3 22z" />
<glyph unicode="Y" horiz-adv-x="1054" d="M52 1352q3 32 30 49q24 14 51 14h7q30 -2 53 -43l335 -602l326 588q14 25 31.5 38t34.5 17q9 2 18 2q6 0 12 -1q15 -3 25 -9q30 -21 30 -51q0 -29 -22 -68l-377 -668v-565q0 -39 -18.5 -60.5t-61.5 -21.5q-45 0 -62.5 22.5t-17.5 59.5v565l-376 666q-18 33 -18 61v7z" />
<glyph unicode="Z" horiz-adv-x="1126" d="M61 61q0 29 23 64l747 1118h-643q-35 0 -58.5 17.5t-23.5 56.5q0 76 82 76h795q33 0 52.5 -16.5t19.5 -41.5q0 -31 -29 -75l-750 -1119h693q39 0 60.5 -16t21.5 -57t-23.5 -58.5t-58.5 -17.5h-826q-39 0 -60.5 19.5t-21.5 49.5z" />
<glyph unicode="[" horiz-adv-x="563" d="M84 -145v1517q0 160 158 160h202q29 0 48.5 -17.5t19.5 -56.5q0 -37 -19.5 -53t-48.5 -16h-133q-41 0 -60.5 -13.5t-19.5 -50.5v-1425q0 -39 20.5 -50.5t59.5 -11.5h133q29 0 48.5 -16.5t19.5 -54.5q0 -37 -19.5 -53.5t-48.5 -16.5h-182q-47 0 -81 5t-55.5 22.5t-31.5 48 t-10 82.5z" />
<glyph unicode="\" horiz-adv-x="970" d="M131 1503q-12 37 3.5 58.5t43.5 31.5q35 10 61.5 0t36.5 -45l580 -1745q10 -31 -6 -52t-41 -32q-29 -10 -58.5 -2.5t-39.5 41.5z" />
<glyph unicode="]" horiz-adv-x="630" d="M96 -233q0 39 19.5 55t48.5 16h133q39 0 59.5 11.5t20.5 50.5v1425q0 37 -19.5 50.5t-60.5 13.5h-133q-29 0 -48.5 16t-19.5 53q0 39 19.5 56.5t48.5 17.5h203q160 0 159 -160v-1517q0 -88 -34.5 -123t-116.5 -35h-211q-29 0 -48.5 16.5t-19.5 53.5z" />
<glyph unicode="^" horiz-adv-x="878" d="M47 1114q0 16 13.5 39t27.5 43l277 397q35 53 69 54q35 0 72 -54l274 -393q10 -16 19.5 -31.5t15.5 -29.5q10 -25 5 -44.5t-19 -31.5q-18 -16 -49 -16t-62 43l-201 294q-31 43 -45 55.5t-38 -22.5l-228 -334q-25 -35 -50.5 -39t-43.5 9q-16 8 -28.5 23.5t-8.5 37.5z" />
<glyph unicode="_" horiz-adv-x="1058" d="M0 -268h1059v-150h-1059v150z" />
<glyph unicode="`" horiz-adv-x="479" d="M94 1456q-29 78 43 100q47 12 68.5 -14t36.5 -67l143 -433q4 -16 8 -30.5t8 -30.5q10 -49 -43 -70q-72 -29 -96 39z" />
<glyph unicode="a" horiz-adv-x="1136" d="M70 516q0 152 37.5 260.5t100 178t146.5 101t176 31.5q123 -2 207 -71.5t123 -173.5v149q0 33 19.5 57.5t60.5 24.5q41 -2 59.5 -25.5t18.5 -56.5v-936q0 -33 -17.5 -56.5t-62.5 -25.5q-45 0 -63.5 25t-18.5 57v127q-49 -106 -130 -163.5t-206 -57.5q-100 0 -183 40 t-142.5 112.5t-92 175t-32.5 227.5zM231 516q2 -197 88.5 -307.5t241.5 -110.5q78 0 134.5 32t93 88t55 132t18.5 164t-20.5 167t-59.5 137.5t-95 93t-130 34.5q-84 0 -144.5 -29.5t-101.5 -87t-60.5 -136.5t-19.5 -177z" />
<glyph unicode="b" horiz-adv-x="1136" d="M119 53v1370q0 33 18.5 57.5t59.5 24.5t60 -24.5t19 -57.5v-581q43 104 130.5 173.5t209.5 71.5q88 0 170 -31.5t144.5 -101t99.5 -178t37 -260.5q0 -125 -33 -227.5t-91 -175t-140 -112.5t-178 -40q-123 0 -209 57.5t-135 163.5v-129q-1 -33 -19 -57q-17 -23 -56 -23h-7 q-45 0 -62.5 23.5t-17.5 56.5zM274 514q0 -88 18.5 -164t55.5 -132t93.5 -88t133.5 -32q156 0 242 110.5t88 307.5q0 98 -19.5 177t-60.5 136.5t-102 87t-143 29.5q-74 0 -130.5 -33.5t-95.5 -93t-59.5 -138.5t-20.5 -167z" />
<glyph unicode="c" horiz-adv-x="1071" d="M70 520q0 109 35.5 212.5t103 183t165 128t218.5 48.5q104 0 192 -35t142 -88q25 -23 44 -57q10 -19 10 -38q0 -16 -7 -32q-4 -10 -14.5 -22.5t-25.5 -18.5t-34.5 -1t-40.5 29q-55 66 -120.5 94.5t-147.5 28.5q-72 0 -136.5 -32.5t-114.5 -90t-80 -136.5t-30 -173 t32 -174t82 -137t114.5 -89t132.5 -32q88 0 149.5 22.5t110.5 75.5q34 36 64 36h4q32 -3 57 -34q19 -12 19 -29q0 -12 -9 -28q-8 -41 -47 -74.5t-96.5 -57.5t-124 -37t-127.5 -13q-121 0 -217.5 46t-164 124t-103 182t-35.5 219z" />
<glyph unicode="d" horiz-adv-x="1136" d="M70 516q0 152 38.5 260.5t102 178t146.5 101t173 31.5q119 -2 206 -73.5t124 -171.5v581q0 33 19.5 57.5t60.5 24.5t59.5 -24.5t18.5 -57.5v-1370q0 -33 -17.5 -56.5t-62.5 -23.5t-63.5 23.5t-18.5 56.5v129q-41 -92 -127 -156.5t-215 -64.5q-98 0 -179 40t-140.5 112.5 t-92 175t-32.5 227.5zM233 516q0 -197 86.5 -307.5t241.5 -110.5q76 0 132.5 32t93 88t55 132t18.5 164t-20.5 167t-59.5 137.5t-95 93t-128 34.5q-84 0 -144.5 -29.5t-100.5 -87t-59.5 -136.5t-19.5 -177z" />
<glyph unicode="e" horiz-adv-x="1030" d="M70 514q0 115 29.5 219.5t88 184t146.5 127t205 47.5q111 0 190.5 -41t129.5 -109t74.5 -157t24.5 -187q0 -76 -19 -107.5t-73 -31.5h-639v-12q1 -59 19 -119q20 -66 60 -119t99.5 -87t137.5 -34q100 0 168.5 27.5t119.5 87.5q20 23 39 28t33.5 0.5t23.5 -15.5t13 -21 q6 -10 6 -24q0 -18 -12 -42q-20 -41 -71.5 -81t-133 -68.5t-190.5 -28.5q-119 0 -207 45t-146.5 122t-87 179t-28.5 217zM227 580h582q0 66 -11.5 132t-42 120.5t-85 88t-138.5 33.5q-90 0 -148 -38.5t-93 -95t-49.5 -122t-14.5 -118.5z" />
<glyph unicode="f" horiz-adv-x="827" d="M72 985q0 43 21.5 57.5t58.5 14.5h143v110q0 88 29.5 152.5t81 106.5t119 61.5t143.5 19.5h69q35 0 64.5 -14t29.5 -57q0 -41 -23.5 -55.5t-57.5 -14.5h-58q-70 0 -116 -19.5t-73.5 -51t-38.5 -71.5t-11 -79v-88h268q43 0 61.5 -15.5t18.5 -58.5q0 -41 -19.5 -54.5 t-60.5 -13.5h-268v-870q0 -35 -18.5 -54.5t-61.5 -19.5q-78 0 -78 74v870h-150q-35 0 -54 11.5t-19 58.5z" />
<glyph unicode="g" horiz-adv-x="1144" d="M70 532q0 152 40 258.5t104.5 172t147 95t168.5 29.5q123 -2 211 -64t127 -167v135q0 33 19.5 57.5t60.5 24.5q39 0 58.5 -24.5t19.5 -57.5v-960q0 -90 -35 -164t-98.5 -127t-155.5 -82t-205 -29q-53 0 -114.5 10.5t-114.5 30t-94 46t-53 59.5q-16 18 -18.5 46.5 t22.5 57.5q6 10 17 15.5t20 3.5q12 -4 20 -7l19 -14q47 -45 131 -75q74 -25 157 -25h23q143 4 230 71.5t87 182.5v157q-47 -100 -137 -148t-215 -48q-96 0 -177 38t-139.5 108.5t-92 170t-33.5 223.5zM231 535q0 -96 24 -170t67 -123t101 -75t128 -26q154 0 235.5 93.5 t81.5 297.5q-2 205 -88 308.5t-233 103.5q-150 0 -233 -108t-83 -301z" />
<glyph unicode="h" horiz-adv-x="1099" d="M119 45v1395q0 37 21.5 55t58.5 18q76 0 75 -73v-551q18 37 50 71.5t75 63.5t96.5 46t114.5 17q76 0 143.5 -23.5t118 -70.5t80 -119.5t29.5 -171.5v-657q0 -74 -78 -74t-78 74v594q0 166 -63.5 236.5t-186.5 70.5q-53 0 -106 -16.5t-96 -52t-71 -92t-28 -136.5v-604 q0 -74 -77 -74q-35 0 -56.5 20.5t-21.5 53.5z" />
<glyph unicode="i" horiz-adv-x="444" d="M119 1329q0 43 29.5 74t74.5 31q43 0 73 -31t30 -74t-30 -73.5t-73 -30.5q-45 0 -74.5 30.5t-29.5 73.5zM143 53v934q0 47 22.5 66.5t57.5 19.5t56.5 -18.5t21.5 -67.5v-934q0 -82 -78 -82q-80 0 -80 82z" />
<glyph unicode="j" horiz-adv-x="487" d="M-137 -254q0 -55 59.5 -87t138.5 -32q68 0 121.5 23.5t88 65.5t53 98.5t18.5 122.5v1052q0 47 -20.5 65.5t-57.5 18.5q-35 0 -56.5 -21.5t-21.5 -62.5v-973q0 -41 -3 -85t-16 -78.5t-38 -57t-68 -22.5q-31 0 -50 6t-34.5 13t-27.5 13.5t-27 6.5q-29 0 -44 -21.5 t-15 -44.5zM160 1329q0 41 31.5 73t72.5 32q43 0 74 -32t31 -73q0 -43 -31 -73.5t-74 -30.5q-41 0 -72.5 30.5t-31.5 73.5z" />
<glyph unicode="k" horiz-adv-x="978" d="M119 45v1378q0 47 16.5 65.5t61.5 18.5t62 -20.5t17 -69.5v-1372q0 -70 -79 -74q-78 0 -78 74zM242 524l532 520q28 26 59 26h3q32 -1 53.5 -20.5t21.5 -52t-37 -69.5l-417 -400l432 -405q41 -39 43 -74v-6q0 -31 -20 -49q-22 -20 -55 -22h-2q-33 0 -60 28z" />
<glyph unicode="l" horiz-adv-x="393" d="M119 43v1387q0 41 17.5 59t60.5 18q45 0 62 -19.5t17 -60.5v-1384q0 -72 -79 -72q-78 0 -78 72z" />
<glyph unicode="m" horiz-adv-x="1769" d="M119 45v959q0 37 18.5 53t61.5 16q76 0 75 -69v-117q16 43 48 80t72 62.5t85 40.5t92 15q127 0 216.5 -54t123.5 -157q53 92 146.5 151.5t216.5 59.5q76 0 144.5 -23.5t119.5 -70.5t82 -115.5t31 -160.5v-670q0 -33 -13.5 -52.5t-54.5 -21.5q-43 0 -61.5 17.5t-18.5 56.5 v590q0 307 -241 307q-59 0 -111.5 -16.5t-91.5 -54t-61.5 -99t-22.5 -149.5v-578q0 -70 -78 -74q-80 0 -80 74v541q0 88 -12 155.5t-42 112.5t-80 67.5t-128 22.5q-51 0 -100 -15.5t-89 -52t-65 -98t-25 -153.5v-580q0 -74 -81 -74q-76 0 -76 74z" />
<glyph unicode="n" horiz-adv-x="1099" d="M119 45v954q0 37 21.5 55.5t58.5 18.5q76 0 75 -74v-114q18 37 50 73.5t75 66.5t96.5 48.5t114.5 18.5q80 0 147.5 -22.5t117 -69t78 -118t28.5 -169.5v-668q0 -74 -78 -74t-78 74v604q0 166 -63.5 233.5t-186.5 67.5q-53 0 -106 -15t-96 -50t-71 -90.5t-28 -135.5v-614 q0 -74 -77 -74q-35 0 -56.5 20.5t-21.5 53.5z" />
<glyph unicode="o" horiz-adv-x="1134" d="M70 518q0 117 27.5 221.5t88 183t153.5 125t226 46.5q131 0 225.5 -47.5t156 -127t90 -184t28.5 -221.5t-29.5 -220.5t-91 -181t-156 -122.5t-223.5 -45t-223 46t-154.5 125t-89 182t-28.5 220zM229 516q0 -96 21.5 -176t63.5 -137.5t104.5 -89t146.5 -31.5 q82 0 145.5 30.5t106.5 87t65.5 136.5t22.5 176q0 98 -20.5 179t-63.5 139.5t-107.5 90t-152.5 31.5t-151.5 -32.5t-103.5 -91t-58.5 -138.5t-18.5 -174z" />
<glyph unicode="p" horiz-adv-x="1136" d="M119 -252v1243q0 33 18.5 56.5t59.5 25.5q41 0 60 -24.5t19 -57.5v-149q39 104 123 173.5t207 71.5q92 0 176 -31.5t146.5 -101t100.5 -178t38 -260.5q0 -125 -33 -227.5t-92 -175t-142 -112.5t-184 -40q-125 0 -205.5 57.5t-129.5 163.5v-434q0 -33 -18.5 -57.5 t-63.5 -24.5q-45 2 -62.5 25.5t-17.5 56.5zM276 514q0 -88 21.5 -164t61.5 -132t94.5 -88t121.5 -32q156 0 242 110.5t86 307.5q0 96 -19.5 176t-59.5 136.5t-101 87t-143 30.5q-72 0 -128.5 -34.5t-95.5 -93t-59.5 -137.5t-20.5 -167z" />
<glyph unicode="q" horiz-adv-x="1136" d="M70 516q0 152 37.5 260.5t100 178t146.5 101t176 31.5q123 -2 207 -71.5t123 -173.5v149q0 33 19.5 57.5t60.5 24.5q41 -2 59.5 -25.5t18.5 -56.5v-1243q0 -33 -17.5 -56.5t-62.5 -25.5q-45 0 -63.5 24.5t-18.5 57.5v434q-49 -106 -130 -163.5t-206 -57.5q-100 0 -183 40 t-142.5 112.5t-92 175t-32.5 227.5zM233 516q0 -197 86.5 -307.5t241.5 -110.5q76 0 133.5 32t94 88t54 132t17.5 164t-20.5 167t-58.5 137.5t-94 93t-130 34.5q-84 0 -144.5 -30.5t-100.5 -87t-59.5 -136.5t-19.5 -176z" />
<glyph unicode="r" horiz-adv-x="716" d="M119 45v954q0 37 21.5 55.5t58.5 18.5q35 0 55 -16.5t20 -57.5v-163q25 47 55.5 91t69.5 78.5t86 55t105 20.5q47 0 64.5 -20.5t17.5 -48.5q0 -49 -32 -62.5t-71 -17.5q-61 -4 -114.5 -32t-93 -78t-63.5 -123.5t-24 -168.5v-485q0 -74 -77 -74q-78 0 -78 74z" />
<glyph unicode="s" horiz-adv-x="923" d="M61 162q0 25 12.5 55.5t45.5 28.5q20 0 42.5 -23.5t58.5 -50.5t92.5 -49.5t142.5 -22.5q98 0 166.5 51.5t68.5 131.5q0 37 -11 64.5t-41 51t-83 45t-137 43.5q-86 23 -148.5 47.5t-103.5 57.5t-60.5 79t-19.5 113q0 70 28.5 125.5t79 94t117 59t142.5 20.5 q80 0 145.5 -17t112.5 -44t73.5 -56.5t26.5 -56.5q0 -33 -14.5 -61.5t-46.5 -28.5q-14 0 -28.5 11.5t-41.5 33.5q-47 37 -94 59.5t-133 24.5q-41 0 -79 -9t-69 -29.5t-49 -50.5t-18 -71q0 -37 13 -60t45 -42.5t84 -37t132 -40.5q70 -20 131.5 -43.5t106.5 -59.5t70.5 -86 t25.5 -126t-35 -137.5t-92 -104.5t-128 -66.5t-145 -23.5q-86 0 -157.5 22.5t-121.5 55.5t-78 66.5t-28 56.5z" />
<glyph unicode="t" horiz-adv-x="833" d="M70 1014q8 33 59 33h104v118q0 61 11.5 96t70.5 35q51 0 63.5 -19.5t12.5 -62.5v-167h254q66 0 95.5 -12.5t31.5 -59.5q0 -47 -31.5 -62.5t-99.5 -15.5h-250v-514v-102.5t13.5 -88t45 -61t93.5 -22.5q47 0 81.5 14t67.5 29q31 13 55 13h9q26 -3 30 -38q1 -7 1 -13 q-1 -26 -19 -48q-24 -28 -63 -49t-91.5 -33.5t-103.5 -12.5q-61 0 -111.5 13.5t-87.5 46t-57.5 86t-20.5 131.5v649h-65q-31 0 -47.5 12.5t-24.5 34.5q-31 24 -31 49q0 11 5 21z" />
<glyph unicode="u" horiz-adv-x="1099" d="M119 350v649q0 74 76 74q80 0 79 -74v-585q0 -166 63.5 -239t186.5 -73q51 0 105.5 17.5t97.5 54.5t70.5 93.5t27.5 135.5v596q0 74 78 74q35 0 56.5 -20.5t21.5 -53.5v-954q0 -37 -22.5 -55.5t-57.5 -18.5q-76 0 -76 74v121q-18 -37 -50 -73t-76 -65.5t-97 -48 t-115 -18.5q-76 0 -142 23.5t-116.5 72.5t-80 122t-29.5 171z" />
<glyph unicode="v" d="M60 1039q22 34 65 34q49 0 78 -67l307 -805q76 201 151.5 399.5t149.5 400.5q14 33 31.5 51.5t40.5 18.5q39 1 63 -27q13 -14 13 -39q0 -23 -11 -55l-354 -897q-23 -47 -43.5 -64.5t-42.5 -17.5q-23 0 -42.5 13.5t-45.5 68.5l-354 895q-15 32 -15 56q-1 20 9 35z" />
<glyph unicode="w" horiz-adv-x="1605" d="M90 1014q2 25 17.5 42t56.5 17q57 0 78 -72l245 -782l242 774q14 43 32.5 61.5t47.5 18.5t47 -18.5t33 -61.5l248 -772l241 776q23 76 82 76q41 0 55.5 -16.5t16.5 -38.5v-6q0 -23 -12 -63q-14 -46 -27 -81l-268 -811q-16 -43 -37 -64.5t-55 -21.5q-43 0 -64.5 27 t-32.5 68l-227 743l-207 -670q-23 -72 -44 -120t-71 -48q-31 0 -53 18.5t-39 67.5l-268 811q-11 35 -25 79q-13 39 -12 61v6z" />
<glyph unicode="x" horiz-adv-x="1067" d="M102 22q-3 8 -4 15q0 16 13 33l706 977q18 27 45 27l2 1q26 1 46 -15q22 -16 31 -39.5t-7 -45.5l-701 -971q-20 -29 -48.5 -31t-50.5 11.5t-32 37.5zM124 1014q9 24 30.5 39.5t49.5 16.5h2q26 0 44 -23l715 -971q10 -15 10 -31q0 -9 -4 -19q-10 -26 -33 -42 q-22 -15 -48 -14h-4q-28 1 -48 30l-707 969q-10 13 -10 27q0 9 3 18z" />
<glyph unicode="y" horiz-adv-x="1118" d="M119 -193q0 43 17.5 62.5t33.5 19.5q23 0 53 -26q49 -43 126 -69q71 -23 154 -23h13q74 2 134.5 20.5t103.5 52t67.5 80.5t24.5 105v207q-39 -92 -122 -156t-204 -64q-76 0 -145.5 22.5t-121.5 69t-84 118t-32 169.5v604q0 74 76 74q80 0 80 -74v-542q0 -164 69.5 -231.5 t192.5 -67.5q51 0 103.5 18.5t93.5 56t66.5 98t25.5 146.5v522q0 74 78 74q35 0 56 -20.5t21 -53.5v-970q0 -90 -34.5 -164t-98 -127t-154.5 -82t-204 -29q-117 2 -198 31t-156 86q-35 25 -35 63z" />
<glyph unicode="z" horiz-adv-x="974" d="M55 61q0 33 31 76l584 758h-535q-74 0 -74 80q0 69 72 69h2h629q111 0 110 -69q-2 -16 -8 -34.5t-22 -41.5l-586 -758h557q74 0 74 -78q0 -41 -16.5 -56t-57.5 -15h-651q-109 0 -109 69z" />
<glyph unicode="{" horiz-adv-x="897" d="M49 612q0 35 23.5 54.5t58.5 23.5q70 8 105.5 59.5t35.5 155.5v422q0 76 40 131t102 68q31 6 59 6h119q53 0 65 -47q6 -37 -24 -51q0 -25 -13.5 -36.5t-27.5 -11.5h-60q-63 0 -84.5 -27.5t-21.5 -92.5v-414q0 -154 -141 -236q76 -41 108.5 -92t32.5 -147v-428 q0 -59 24.5 -83t86.5 -24h55q16 0 28.5 -11t12.5 -36q29 -14 22 -53q-4 -23 -21.5 -34t-41.5 -11h-125q-98 0 -146.5 42t-48.5 148v394q0 123 -29.5 185t-115.5 71q-33 4 -55.5 22.5t-22.5 52.5z" />
<glyph unicode="|" horiz-adv-x="428" d="M137 -238v1704q0 78 76 78t76 -76v-1704q0 -39 -17.5 -58t-58.5 -19t-58.5 19.5t-17.5 55.5z" />
<glyph unicode="}" horiz-adv-x="923" d="M207 -258q-4 39 24 53q0 25 12.5 36t28.5 11h56q61 0 85.5 23.5t24.5 83.5v428q0 96 33 147t109 92q-141 82 -142 236v414q0 72 -23.5 96t-82.5 24h-60q-14 0 -27.5 11.5t-13.5 36.5q-31 14 -24 51q12 47 65 47h119q29 0 58 -6q63 -12 103 -67.5t40 -131.5v-383 q0 -123 30.5 -183.5t108.5 -70.5q35 -4 59.5 -23.5t24.5 -54.5t-22.5 -53t-55.5 -22q-145 -16 -145 -215v-435q0 -106 -48 -148t-149 -42h-123q-53 0 -65 45z" />
<glyph unicode="~" horiz-adv-x="2048" d="M238 526q0 35 18 54.5t35 35.5q20 20 56 48t74 53.5t72.5 47t53.5 30.5q35 14 69.5 22t75.5 8q43 0 75 -5t61.5 -15t58 -25.5t63.5 -36.5l109 -63q45 -29 84 -51.5t75.5 -38t76.5 -23.5t89 -8q51 0 91.5 11.5t77 34t73.5 55t84 77.5q18 16 34.5 26.5t37.5 8.5 q25 0 40 -21.5t15 -48.5q0 -29 -39 -70.5t-92 -83.5t-109.5 -77t-93.5 -47q-47 -16 -129 -16q-47 0 -85 5t-74.5 17t-74.5 30.5t-83 45.5l-76 47q-104 66 -166.5 93.5t-116.5 27.5q-70 0 -161 -47t-197 -150q-20 -20 -47 -20q-23 0 -39 18.5t-16 50.5z" />
<glyph />
<glyph horiz-adv-x="2048" />
<glyph horiz-adv-x="2048" />
<glyph horiz-adv-x="2048" />
<glyph horiz-adv-x="2048" />
<glyph horiz-adv-x="2048" />
<glyph unicode="&#x85;" horiz-adv-x="2048" />
<glyph horiz-adv-x="2048" />
<glyph horiz-adv-x="2048" />
<glyph horiz-adv-x="2048" />
<glyph horiz-adv-x="2048" />
<glyph horiz-adv-x="2048" />
<glyph horiz-adv-x="2048" />
<glyph horiz-adv-x="2048" />
<glyph horiz-adv-x="2048" />
<glyph horiz-adv-x="2048" />
<glyph horiz-adv-x="2048" />
<glyph horiz-adv-x="2048" />
<glyph horiz-adv-x="2048" />
<glyph horiz-adv-x="2048" />
<glyph horiz-adv-x="2048" />
<glyph horiz-adv-x="2048" />
<glyph horiz-adv-x="2048" />
<glyph horiz-adv-x="2048" />
<glyph horiz-adv-x="2048" />
<glyph horiz-adv-x="2048" />
<glyph horiz-adv-x="2048" />
<glyph horiz-adv-x="2048" />
<glyph horiz-adv-x="2048" />
<glyph horiz-adv-x="2048" />
<glyph horiz-adv-x="2048" />
<glyph horiz-adv-x="2048" />
<glyph horiz-adv-x="2048" />
<glyph unicode="&#xa0;" />
<glyph unicode="&#xa1;" />
<glyph unicode="&#xa2;" />
<glyph unicode="&#xa3;" />
<glyph unicode="&#xa4;" horiz-adv-x="2048" d="M272 -77.5q0 22.5 33 52.5l141 138q-168 199 -167 487q0 291 159 492l-133 131q-33 35 -33 56t25 48q49 53 104 -4l131 -135q207 174 500 174q277 0 490 -174l129 135q31 31 55.5 31t48.5 -27q25 -27 25 -49.5t-31 -52.5l-133 -131q172 -207 172 -496t-172 -492l133 -131 q31 -33 31 -54t-25 -48q-51 -55 -102 2l-133 139q-203 -160 -490 -159q-287 0 -489 165l-138 -143q-57 -57 -106 -4q-25 27 -25 49.5zM406 606q0 -276 178 -450q176 -174 448 -174q274 0 451 172q178 174 178 448q0 276 -188 455q-188 178 -449 178q-258 0 -440 -176 q-178 -176 -178 -453z" />
<glyph unicode="&#xa5;" />
<glyph unicode="&#xa6;" />
<glyph unicode="&#xa7;" horiz-adv-x="2048" d="M592 678q0 172 176 274q-70 55 -104.5 114.5t-34.5 152.5q0 127 104 217q106 90 283 90q211 0 299 -107q88 -102 88 -221q0 -80 -90 -80q-63 0 -84 86q-18 88 -68 125q-49 37 -151 37q-104 0 -161.5 -42t-57.5 -110q0 -70 57 -120q61 -55 229 -144q170 -88 256 -168 q84 -78 84 -184q0 -109 -47 -178.5t-149 -132.5q166 -133 165 -275q0 -141 -102 -227t-266 -86t-252 47q-82 45 -123 139q-39 90 -39 144q0 51 23.5 75.5t62.5 24.5q68 0 86 -100q20 -98 72.5 -132t163.5 -34q207 0 207 147q0 100 -222 234l-188 112q-119 70 -168 138 q-49 70 -49 184zM751.5 680q0.5 -100 153.5 -193l176 -102q174 92 174 190q0 72 -81.5 133.5t-260.5 145.5q-162 -74 -161.5 -174z" />
<glyph unicode="&#xa8;" horiz-adv-x="2048" d="M553 1364q0 31 12.5 57.5t32.5 47t46.5 32.5t55.5 12q61 0 104.5 -44t43.5 -103t-42 -101t-104 -42q-61 0 -105 42t-44 99zM1200 1364q0 31 12.5 57.5t33 47t47 32.5t55.5 12q61 0 104 -44t43 -103t-42 -101t-103 -42t-105.5 42t-44.5 99z" />
<glyph unicode="&#xa9;" />
<glyph unicode="&#xaa;" />
<glyph unicode="&#xab;" />
<glyph unicode="&#xac;" />
<glyph unicode="&#xad;" />
<glyph unicode="&#xae;" />
<glyph unicode="&#xaf;" />
<glyph unicode="&#xb0;" horiz-adv-x="2048" d="M307 1307q0 43 16.5 79.5t44 64.5t64.5 44t78 16q88 0 145.5 -58t57.5 -146q0 -86 -57.5 -143.5t-145.5 -57.5t-145.5 57.5t-57.5 143.5zM412 1309q0 -39 29.5 -69t68.5 -30t68.5 30t29.5 69t-29.5 68.5t-68.5 29.5t-68.5 -29.5t-29.5 -68.5z" />
<glyph unicode="&#xb1;" horiz-adv-x="2048" d="M367 47q0 35 21.5 62.5t62.5 23.5h1146q41 4 61.5 -23.5t20.5 -62.5t-20.5 -62.5t-61.5 -21.5h-1146q-41 -6 -62.5 21.5t-21.5 62.5zM367 819q0 35 21.5 62.5t62.5 23.5h487v422q-4 43 23.5 64.5t61.5 21.5t61.5 -21.5t25.5 -64.5v-422h487q41 4 61.5 -23.5t20.5 -62.5 t-20.5 -62.5t-61.5 -21.5h-487v-424q2 -43 -25.5 -64.5t-61.5 -21.5t-61.5 21.5t-23.5 64.5v424h-487q-41 -6 -62.5 21.5t-21.5 62.5z" />
<glyph unicode="&#xb2;" />
<glyph unicode="&#xb3;" />
<glyph unicode="&#xb4;" />
<glyph unicode="&#xb5;" />
<glyph unicode="&#xb6;" />
<glyph unicode="&#xb7;" horiz-adv-x="2048" d="M870 612q0 31 12.5 58.5t34 49t49 35t58.5 13.5q63 0 108.5 -45t45.5 -109q0 -63 -44 -106t-110 -43q-63 0 -108.5 44t-45.5 103z" />
<glyph unicode="&#xb8;" />
<glyph unicode="&#xb9;" />
<glyph unicode="&#xba;" />
<glyph unicode="&#xbb;" />
<glyph unicode="&#xbc;" />
<glyph unicode="&#xbd;" />
<glyph unicode="&#xbe;" />
<glyph unicode="&#xbf;" />
<glyph unicode="&#xc0;" />
<glyph unicode="&#xc1;" />
<glyph unicode="&#xc2;" />
<glyph unicode="&#xc3;" />
<glyph unicode="&#xc4;" />
<glyph unicode="&#xc5;" />
<glyph unicode="&#xc6;" />
<glyph unicode="&#xc7;" />
<glyph unicode="&#xc8;" />
<glyph unicode="&#xc9;" />
<glyph unicode="&#xca;" />
<glyph unicode="&#xcb;" />
<glyph unicode="&#xcc;" />
<glyph unicode="&#xcd;" />
<glyph unicode="&#xce;" />
<glyph unicode="&#xcf;" />
<glyph unicode="&#xd0;" />
<glyph unicode="&#xd1;" />
<glyph unicode="&#xd2;" />
<glyph unicode="&#xd3;" />
<glyph unicode="&#xd4;" />
<glyph unicode="&#xd5;" />
<glyph unicode="&#xd6;" />
<glyph unicode="&#xd7;" horiz-adv-x="1210" d="M229 946q6 12 18.5 25.5t28.5 19.5q37 18 74 -18l250 -248l215 213q29 29 62.5 43t70.5 -23q53 -53 4 -102l-241 -242l219 -221q18 -18 32.5 -35.5t22.5 -36t4 -38t-22 -37.5q-55 -53 -111 2l-256 256l-205 -205q-35 -35 -70.5 -52.5t-70.5 17.5q-43 43 -16 88 q10 14 22 28.5t27 29.5l202 202l-249 252q-41 41 -11 82z" />
<glyph unicode="&#xd8;" />
<glyph unicode="&#xd9;" />
<glyph unicode="&#xda;" />
<glyph unicode="&#xdb;" />
<glyph unicode="&#xdc;" />
<glyph unicode="&#xdd;" />
<glyph unicode="&#xde;" />
<glyph unicode="&#xdf;" />
<glyph unicode="&#xe0;" horiz-adv-x="1136" d="M70 516q0 152 37.5 260.5t100 178t146.5 101t176 31.5q123 -2 207 -71.5t123 -173.5v149q0 33 19.5 57.5t60.5 24.5q41 -2 59.5 -25.5t18.5 -56.5v-936q0 -33 -17.5 -56.5t-62.5 -25.5q-45 0 -63.5 25t-18.5 57v127q-49 -106 -130 -163.5t-206 -57.5q-100 0 -183 40 t-142.5 112.5t-92 175t-32.5 227.5zM231 516q2 -197 88.5 -307.5t241.5 -110.5q78 0 134.5 32t93 88t55 132t18.5 164t-20.5 167t-59.5 137.5t-95 93t-130 34.5q-84 0 -144.5 -29.5t-101.5 -87t-60.5 -136.5t-19.5 -177zM235 1459q-2 26 9 48q10 20 32.5 36t53.5 1l487 -227 q33 -14 35 -42t-8 -48q-10 -18 -33 -34.5t-51 -2.5l-488 227q-35 16 -37 42z" />
<glyph unicode="&#xe1;" horiz-adv-x="1136" d="M70 516q0 152 37.5 260.5t100 178t146.5 101t176 31.5q123 -2 207 -71.5t123 -173.5v149q0 33 19.5 57.5t60.5 24.5q41 -2 59.5 -25.5t18.5 -56.5v-936q0 -33 -17.5 -56.5t-62.5 -25.5q-45 0 -63.5 25t-18.5 57v127q-49 -106 -130 -163.5t-206 -57.5q-100 0 -183 40 t-142.5 112.5t-92 175t-32.5 227.5zM221 1273.5q2 26.5 35 43.5l487 227q33 14 54.5 -1t31.5 -36q10 -18 7.5 -45.5t-33.5 -42.5l-488 -229q-35 -16 -55 0t-31 37q-10 20 -8 46.5zM231 516q2 -197 88.5 -307.5t241.5 -110.5q78 0 134.5 32t93 88t55 132t18.5 164t-20.5 167 t-59.5 137.5t-95 93t-130 34.5q-84 0 -144.5 -29.5t-101.5 -87t-60.5 -136.5t-19.5 -177z" />
<glyph unicode="&#xe2;" horiz-adv-x="1136" d="M70 516q0 152 37.5 260.5t100 178t146.5 101t176 31.5q123 -2 207 -71.5t123 -173.5v149q0 33 19.5 57.5t60.5 24.5q41 -2 59.5 -25.5t18.5 -56.5v-936q0 -33 -17.5 -56.5t-62.5 -25.5q-45 0 -63.5 25t-18.5 57v127q-49 -106 -130 -163.5t-206 -57.5q-100 0 -183 40 t-142.5 112.5t-92 175t-32.5 227.5zM203 1364q-2 29 26 47q25 12 72 35.5t96 46.5t90.5 40t55.5 17t56 -17t91 -40t94 -45.5t68 -34.5q33 -23 31 -47.5t-15 -44.5q-10 -18 -36.5 -30.5t-55.5 5.5q-20 8 -56 27.5t-73 39t-66.5 34t-37.5 14.5q-10 0 -40 -14.5t-67 -34 t-71.5 -38.5t-55.5 -28q-31 -18 -56.5 -5.5t-37.5 30.5q-10 14 -12 43zM231 516q2 -197 88.5 -307.5t241.5 -110.5q78 0 134.5 32t93 88t55 132t18.5 164t-20.5 167t-59.5 137.5t-95 93t-130 34.5q-84 0 -144.5 -29.5t-101.5 -87t-60.5 -136.5t-19.5 -177z" />
<glyph unicode="&#xe3;" />
<glyph unicode="&#xe4;" />
<glyph unicode="&#xe5;" />
<glyph unicode="&#xe6;" />
<glyph unicode="&#xe7;" />
<glyph unicode="&#xe8;" horiz-adv-x="1030" d="M70 514q0 -115 28.5 -217t87 -179t146.5 -122t207 -45q109 0 190.5 28.5t133.5 68.5t71.5 81t5.5 66q-4 10 -13 21t-23.5 15.5t-33 -1t-39.5 -27.5q-51 -59 -119.5 -87t-168.5 -28q-78 0 -137.5 34t-99.5 87t-60.5 118.5t-18.5 131.5h639q53 0 72.5 31.5t19.5 107.5 q0 98 -24.5 187t-74.5 157t-130 109t-190 41q-117 0 -205 -47.5t-146.5 -127t-88 -184t-29.5 -219.5zM207 1459q-2 26 8 48q10 20 32.5 36t53.5 1l485 -227q35 -14 37 -42t-8 -48q-10 -18 -32.5 -34.5t-51.5 -2.5l-487 227q-35 16 -37 42zM227 580q0 53 14.5 118.5t49.5 122 t93 95t148 38.5q84 0 138.5 -33.5t85 -88t42 -121t11.5 -131.5h-582z" />
<glyph unicode="&#xe9;" horiz-adv-x="1030" d="M70 514q0 -115 28.5 -217t87 -179t146.5 -122t207 -45q109 0 190.5 28.5t133.5 68.5t71.5 81t5.5 66q-4 10 -13 21t-23.5 15.5t-33 -1t-39.5 -27.5q-51 -59 -119.5 -87t-168.5 -28q-78 0 -137.5 34t-99.5 87t-60.5 118.5t-18.5 131.5h639q53 0 72.5 31.5t19.5 107.5 q0 98 -24.5 187t-74.5 157t-130 109t-190 41q-117 0 -205 -47.5t-146.5 -127t-88 -184t-29.5 -219.5zM214 1273.5q3 26.5 34 43.5l487 227q33 14 54.5 -1t31.5 -36q10 -18 8 -45.5t-34 -42.5l-488 -229q-35 -16 -55.5 0t-30.5 37q-10 20 -7 46.5zM227 580q0 53 14.5 118.5 t49.5 122t93 95t148 38.5q84 0 138.5 -33.5t85 -88t42 -121t11.5 -131.5h-582z" />
<glyph unicode="&#xea;" horiz-adv-x="1030" d="M70 514q0 -115 28.5 -217t87 -179t146.5 -122t207 -45q109 0 190.5 28.5t133.5 68.5t71.5 81t5.5 66q-4 10 -13 21t-23.5 15.5t-33 -1t-39.5 -27.5q-51 -59 -119.5 -87t-168.5 -28q-78 0 -137.5 34t-99.5 87t-60.5 118.5t-18.5 131.5h639q53 0 72.5 31.5t19.5 107.5 q0 98 -24.5 187t-74.5 157t-130 109t-190 41q-117 0 -205 -47.5t-146.5 -127t-88 -184t-29.5 -219.5zM174 1365q-2 28 27 46q25 12 71.5 35.5t96 46.5t90.5 40t55 17t56 -17t90.5 -40t94.5 -45.5t68 -34.5q33 -23 30 -47.5t-13 -44.5q-10 -18 -37 -30.5t-55 5.5 q-20 10 -56.5 30t-73 38t-66.5 32.5t-38 14.5q-10 0 -40 -14.5t-66.5 -34t-72.5 -38.5t-56 -28q-31 -18 -56.5 -5.5t-36.5 30.5q-10 16 -12 44zM227 580q0 53 14.5 118.5t49.5 122t93 95t148 38.5q84 0 138.5 -33.5t85 -88t42 -121t11.5 -131.5h-582z" />
<glyph unicode="&#xeb;" />
<glyph unicode="&#xec;" horiz-adv-x="444" d="M-89 1459q-1 26 9 48q10 20 31.5 36t52.5 1l488 -227q35 -14 36.5 -42t-8.5 -48q-10 -18 -32.5 -34.5t-53.5 -2.5l-487 227q-35 16 -36 42zM143 53v934q0 47 22.5 66.5t57.5 19.5t56.5 -18.5t21.5 -67.5v-934q0 -82 -78 -82q-80 0 -80 82z" />
<glyph unicode="&#xed;" horiz-adv-x="444" d="M-82 1273.5q2 26.5 35 43.5l485 227q33 14 55.5 -1t32.5 -36q8 -18 6 -45.5t-32 -42.5l-488 -229q-35 -16 -55 0t-31 37q-10 20 -8 46.5zM143 53v934q0 47 22.5 66.5t57.5 19.5t56.5 -18.5t21.5 -67.5v-934q0 -82 -78 -82q-80 0 -80 82z" />
<glyph unicode="&#xee;" horiz-adv-x="436" d="M-123 1364q-2 29 27 47q25 12 72 35.5t96 46.5t90 40t55 17t56 -17t91.5 -40t94.5 -45.5t67 -34.5q33 -23 31 -47.5t-14 -44.5q-10 -18 -37 -30.5t-55 5.5q-20 10 -56.5 30t-73 38t-66.5 32.5t-38 14.5q-10 0 -40 -14.5t-66.5 -34t-71.5 -38.5t-55 -28 q-31 -18 -56.5 -5.5t-38.5 30.5q-10 14 -12 43zM139 53v934q0 47 22.5 66.5t57.5 19.5t56.5 -18.5t21.5 -67.5v-934q0 -82 -78 -82q-80 0 -80 82z" />
<glyph unicode="&#xef;" />
<glyph unicode="&#xf0;" />
<glyph unicode="&#xf1;" />
<glyph unicode="&#xf2;" horiz-adv-x="1134" d="M70 518q0 117 27.5 221.5t88 183t153.5 125t226 46.5q131 0 225.5 -47.5t156 -127t90 -184t28.5 -221.5t-29.5 -220.5t-91 -181t-156 -122.5t-223.5 -45t-223 46t-154.5 125t-89 182t-28.5 220zM229 516q0 -96 21.5 -176t63.5 -137.5t104.5 -89t146.5 -31.5 q82 0 145.5 30.5t106.5 87t65.5 136.5t22.5 176q0 98 -20.5 179t-63.5 139.5t-107.5 90t-152.5 31.5t-151.5 -32.5t-103.5 -91t-58.5 -138.5t-18.5 -174zM254 1459q-2 26 8 48q10 20 32.5 36t53.5 1l488 -227q33 -14 34.5 -42t-8.5 -48q-10 -18 -32.5 -34.5t-51.5 -2.5 l-487 227q-35 16 -37 42z" />
<glyph unicode="&#xf3;" horiz-adv-x="1134" d="M70 518q0 117 27.5 221.5t88 183t153.5 125t226 46.5q131 0 225.5 -47.5t156 -127t90 -184t28.5 -221.5t-29.5 -220.5t-91 -181t-156 -122.5t-223.5 -45t-223 46t-154.5 125t-89 182t-28.5 220zM229 516q0 -96 21.5 -176t63.5 -137.5t104.5 -89t146.5 -31.5 q82 0 145.5 30.5t106.5 87t65.5 136.5t22.5 176q0 98 -20.5 179t-63.5 139.5t-107.5 90t-152.5 31.5t-151.5 -32.5t-103.5 -91t-58.5 -138.5t-18.5 -174zM262 1273.5q2 26.5 35 43.5l485 227q33 14 55.5 -1t32.5 -36q8 -18 6 -45.5t-32 -42.5l-488 -229q-35 -16 -55 0 t-31 37q-10 20 -8 46.5z" />
<glyph unicode="&#xf4;" horiz-adv-x="1134" d="M70 518q0 117 27.5 221.5t88 183t153.5 125t226 46.5q131 0 225.5 -47.5t156 -127t90 -184t28.5 -221.5t-29.5 -220.5t-91 -181t-156 -122.5t-223.5 -45t-223 46t-154.5 125t-89 182t-28.5 220zM221 1364q-2 29 27 47q25 12 72 35.5t96 46.5t90 40t55 17t56 -17t91.5 -40 t94.5 -45.5t67 -34.5q33 -23 31 -47.5t-14 -44.5q-10 -18 -37 -30.5t-55 5.5q-20 10 -56.5 30t-73 38t-66.5 32.5t-38 14.5q-10 0 -39.5 -14.5t-66.5 -34t-72 -38.5t-55 -28q-31 -18 -56.5 -5.5t-38.5 30.5q-10 14 -12 43zM229 516q0 -96 21.5 -176t63.5 -137.5t104.5 -89 t146.5 -31.5q82 0 145.5 30.5t106.5 87t65.5 136.5t22.5 176q0 98 -20.5 179t-63.5 139.5t-107.5 90t-152.5 31.5t-151.5 -32.5t-103.5 -91t-58.5 -138.5t-18.5 -174z" />
<glyph unicode="&#xf5;" />
<glyph unicode="&#xf6;" />
<glyph unicode="&#xf7;" horiz-adv-x="1210" d="M115 614q0 51 37.5 64.5t87.5 13.5h786q70 0 70 -78q0 -76 -70 -75h-795q-51 0 -83.5 13t-32.5 62zM498 176q0 45 32.5 77t77.5 32t77 -32t32 -77t-32 -77.5t-77 -32.5t-77.5 32.5t-32.5 77.5zM498 1047q0 45 31.5 76.5t76.5 31.5t78 -31.5t33 -76.5t-33 -77t-78 -32 t-76.5 31.5t-31.5 77.5z" />
<glyph unicode="&#xf8;" />
<glyph unicode="&#xf9;" horiz-adv-x="1099" d="M119 350v649q0 74 76 74q80 0 79 -74v-585q0 -166 63.5 -239t186.5 -73q51 0 105.5 17.5t97.5 54.5t70.5 93.5t27.5 135.5v596q0 74 78 74q35 0 56.5 -20.5t21.5 -53.5v-954q0 -37 -22.5 -55.5t-57.5 -18.5q-76 0 -76 74v121q-18 -37 -50 -73t-76 -65.5t-97 -48 t-115 -18.5q-76 0 -142 23.5t-116.5 72.5t-80 122t-29.5 171zM239.5 1475.5q-1.5 25.5 8.5 46.5q10 20 32.5 36.5t53.5 2.5l487 -228q33 -16 36 -43.5t-7 -48.5q-10 -18 -33.5 -33.5t-52.5 -1.5l-488 228q-35 16 -36.5 41.5z" />
<glyph unicode="&#xfa;" horiz-adv-x="1099" d="M119 350v649q0 74 76 74q80 0 79 -74v-585q0 -166 63.5 -239t186.5 -73q51 0 105.5 17.5t97.5 54.5t70.5 93.5t27.5 135.5v596q0 74 78 74q35 0 56.5 -20.5t21.5 -53.5v-954q0 -37 -22.5 -55.5t-57.5 -18.5q-76 0 -76 74v121q-18 -37 -50 -73t-76 -65.5t-97 -48 t-115 -18.5q-76 0 -142 23.5t-116.5 72.5t-80 122t-29.5 171zM249 1273.5q3 26.5 34 43.5l487 227q33 14 54.5 -1t31.5 -36q10 -18 8 -45.5t-35 -42.5l-487 -229q-35 -16 -55.5 0t-30.5 37q-10 20 -7 46.5z" />
<glyph unicode="&#xfb;" horiz-adv-x="1099" d="M119 350v649q0 74 76 74q80 0 79 -74v-585q0 -166 63.5 -239t186.5 -73q51 0 105.5 17.5t97.5 54.5t70.5 93.5t27.5 135.5v596q0 74 78 74q35 0 56.5 -20.5t21.5 -53.5v-954q0 -37 -22.5 -55.5t-57.5 -18.5q-76 0 -76 74v121q-18 -37 -50 -73t-76 -65.5t-97 -48 t-115 -18.5q-76 0 -142 23.5t-116.5 72.5t-80 122t-29.5 171zM209 1365q-2 28 27 46q25 12 71.5 35.5t96 46.5t90.5 40t55 17t56 -17t90 -40t94.5 -45.5t68.5 -34.5q33 -23 30 -47.5t-14 -44.5q-10 -18 -36.5 -30.5t-55.5 5.5q-20 10 -56 30t-73 38t-66.5 32.5t-37.5 14.5 q-10 0 -40 -14.5t-66.5 -34t-72.5 -38.5t-57 -28q-31 -18 -56.5 -5.5t-35.5 30.5q-10 16 -12 44z" />
<glyph unicode="&#xfc;" horiz-adv-x="1099" d="M119 350v649q0 74 76 74q80 0 79 -74v-585q0 -166 63.5 -239t186.5 -73q51 0 105.5 17.5t97.5 54.5t70.5 93.5t27.5 135.5v596q0 74 78 74q35 0 56.5 -20.5t21.5 -53.5v-954q0 -37 -22.5 -55.5t-57.5 -18.5q-76 0 -76 74v121q-18 -37 -50 -73t-76 -65.5t-97 -48 t-115 -18.5q-76 0 -142 23.5t-116.5 72.5t-80 122t-29.5 171zM225 1325q0 43 31 74t74 31t73.5 -31t30.5 -74t-30.5 -73.5t-73.5 -30.5t-74 30.5t-31 73.5zM680 1325q0 43 29.5 74t74.5 31q43 0 73 -31t30 -74t-30 -73.5t-73 -30.5q-45 0 -74.5 30.5t-29.5 73.5z" />
<glyph unicode="&#xfd;" />
<glyph unicode="&#xfe;" />
<glyph unicode="&#xff;" />
<glyph unicode="&#x2000;" horiz-adv-x="823" vert-adv-y="0" />
<glyph unicode="&#x2001;" horiz-adv-x="1647" vert-adv-y="0" />
<glyph unicode="&#x2002;" horiz-adv-x="823" vert-adv-y="0" />
<glyph unicode="&#x2003;" horiz-adv-x="1647" vert-adv-y="0" />
<glyph unicode="&#x2004;" horiz-adv-x="549" vert-adv-y="0" />
<glyph unicode="&#x2005;" horiz-adv-x="411" vert-adv-y="0" />
<glyph unicode="&#x2006;" horiz-adv-x="274" vert-adv-y="0" />
<glyph unicode="&#x2007;" horiz-adv-x="274" vert-adv-y="0" />
<glyph unicode="&#x2008;" horiz-adv-x="205" vert-adv-y="0" />
<glyph unicode="&#x2009;" horiz-adv-x="329" vert-adv-y="0" />
<glyph unicode="&#x200a;" horiz-adv-x="91" vert-adv-y="0" />
<glyph unicode="&#x2010;" horiz-adv-x="1107" d="M115 614q0 53 40 65.5t91 12.5h678q69 0 69 -78q0 -76 -69 -75h-680q-25 0 -48.5 2t-41 9t-28.5 22.5t-11 41.5z" />
<glyph unicode="&#x2011;" horiz-adv-x="1107" d="M115 614q0 53 40 65.5t91 12.5h678q69 0 69 -78q0 -76 -69 -75h-680q-25 0 -48.5 2t-41 9t-28.5 22.5t-11 41.5z" />
<glyph unicode="&#x2012;" horiz-adv-x="1107" d="M115 614q0 53 40 65.5t91 12.5h678q69 0 69 -78q0 -76 -69 -75h-680q-25 0 -48.5 2t-41 9t-28.5 22.5t-11 41.5z" />
<glyph unicode="&#x2013;" horiz-adv-x="1253" d="M115 614q0 53 46.5 65.5t106.5 12.5h791q80 0 80 -78q0 -76 -80 -75h-794q-29 0 -56.5 2t-47.5 9t-33 22.5t-13 41.5z" />
<glyph unicode="&#x2014;" horiz-adv-x="2048" d="M0 539v155h2048v-155h-2048z" />
<glyph unicode="&#x2018;" horiz-adv-x="2048" d="M1591 1237q0 131 117 258q121 127 164 127q12 -2 24.5 -10t18.5 -21.5t1 -32t-32 -38.5q-127 -111 -127 -160q0 -29 43 -35q45 -6 73 -40t28 -89q0 -53 -41 -97t-109 -44q-66 0 -113 47t-47 135z" />
<glyph unicode="&#x2019;" horiz-adv-x="2048" d="M145.5 1084.5q-6.5 13.5 0 32t32.5 38.5q125 106 125 160q0 29 -43 35q-45 6 -72 39q-23 25 -26.5 63.5t11.5 76.5t49 65.5t87 25.5q66 0 114 -46t48 -138q0 -135 -119 -260q-117 -123 -162 -123q-12 2 -25 10t-19.5 21.5z" />
<glyph unicode="&#x201c;" horiz-adv-x="2048" d="M1210 1233q0 133 115 260q117 129 164 129q12 -2 24.5 -10t18.5 -21.5t1 -32t-32 -38.5q-127 -111 -127 -162q0 -31 43 -33q43 -4 69.5 -38t26.5 -85t-40.5 -97t-108.5 -46q-66 0 -110 44t-44 130zM1591 1233q0 135 115 262q117 127 164 127q12 -2 24.5 -10t18.5 -21.5 t1 -32t-32 -38.5q-127 -111 -127 -162q0 -31 43 -33q43 -4 69.5 -37t26.5 -88t-43 -99t-108 -44q-66 0 -109 47t-43 129z" />
<glyph unicode="&#x201d;" horiz-adv-x="2048" d="M145.5 1084.5q-6.5 13.5 0 32t32.5 38.5q127 111 127 162q0 29 -43 33q-41 2 -69 36q-25 23 -28 63t13.5 78t51 65.5t87.5 25.5q66 0 109 -47t43 -129q0 -137 -117 -262q-115 -127 -162 -127q-12 2 -25 10t-19.5 21.5zM526 1084.5q-6 13.5 0 32t33 38.5q127 111 127 162 q0 29 -43 33q-41 2 -70 36q-27 33 -26 87q0 51 40.5 97t108.5 46q66 0 110 -44t44 -130q0 -133 -117 -262q-115 -127 -162 -127q-12 2 -25.5 10t-19.5 21.5z" />
<glyph unicode="&#x2026;" horiz-adv-x="2048" d="M199 614q0 57 42 99.5t99 42.5t99 -42t42 -100q0 -57 -42 -99t-99 -42t-99 42t-42 99zM883 614q0 57 42 99.5t99 42.5t99 -42t42 -100q0 -57 -42 -99t-99 -42t-99 42t-42 99zM1567 614q0 57 42 99.5t99 42.5t99 -42t42 -100q0 -57 -42 -99t-99 -42t-99 42t-42 99z" />
<glyph unicode="&#x202f;" horiz-adv-x="329" vert-adv-y="0" />
<glyph unicode="&#x205f;" horiz-adv-x="411" vert-adv-y="0" />
<glyph unicode="&#x25fc;" horiz-adv-x="1075" vert-adv-y="2150" d="M0 0v1075h1075v-1075h-1075z" />
</font>
</defs>
</svg>
